<svg height="516.2pt" viewBox="0 0 516.2 516.2" width="516.2pt" xmlns="http://www.w3.org/2000/svg"><path d="m0 195.722656h391.449219v320.277344h-355.863281c-19.652344 0-35.585938-15.933594-35.585938-35.585938zm0 0" fill="#fdbd40"/><path d="m284.691406 302.484375h106.757813v106.757813h-106.757813zm0 0" fill="#fcf05a"/><path d="m26.691406 124.550781h364.757813v71.171875h-391.449219v-44.480468c0-14.742188 11.949219-26.691407 26.691406-26.691407zm0 0" fill="#fcf05a"/><path d="m106.757812 0h177.933594v160.136719h-177.933594zm0 0" fill="#87cee9"/><path d="m142.34375 0h35.585938v160.136719h-35.585938zm0 0" fill="#238892"/><path d="m258 35.585938c0 9.828124-7.964844 17.792968-17.792969 17.792968s-17.792969-7.964844-17.792969-17.792968c0-9.828126 7.964844-17.792969 17.792969-17.792969s17.792969 7.964843 17.792969 17.792969zm0 0" fill="#e9686a"/><path d="m258 71.171875c0 9.828125-7.964844 17.792969-17.792969 17.792969s-17.792969-7.964844-17.792969-17.792969 7.964844-17.792969 17.792969-17.792969 17.792969 7.964844 17.792969 17.792969zm0 0" fill="#195c85"/><path d="m391.449219 169.035156h-346.964844c-4.914063 0-8.898437-3.984375-8.898437-8.898437 0-4.910157 3.984374-8.894531 8.898437-8.894531h346.964844c4.914062 0 8.894531 3.984374 8.894531 8.894531 0 4.914062-3.980469 8.898437-8.894531 8.898437zm0 0" fill="#fdbd40"/><path d="m320.277344 382.550781c-4.914063 0-8.898438-3.980469-8.898438-8.890625 0-.003906 0-.003906 0-.003906v-35.585938c0-4.914062 3.984375-8.898437 8.898438-8.898437 4.910156 0 8.894531 3.984375 8.894531 8.898437v35.585938c0 4.910156-3.980469 8.894531-8.890625 8.894531-.003906 0-.003906 0-.003906 0zm0 0" fill="#e9686a"/><path d="m391.449219 382.550781c20.746093 0 20.746093 17.792969 41.496093 17.792969 20.765626 0 20.765626-17.792969 41.527344-17.792969 20.765625 0 20.761719 17.792969 41.527344 17.792969v-213.515625c-20.765625 0-20.765625-17.792969-41.527344-17.792969-20.761718 0-20.761718 17.792969-41.527344 17.792969-20.75 0-20.75-17.792969-41.496093-17.792969" fill="#55b56a"/><path d="m391.449219 346.964844c15.25-.082032 30.007812 5.402344 41.5 15.425781 11.457031-10.097656 26.25-15.59375 41.519531-15.425781 2.0625 0 4.039062.085937 5.945312.246094v-135.6875c-2.269531-1.566407-4.242187-3.128907-5.945312-4.542969-11.457031 10.101562-26.25 15.601562-41.527344 15.433593-15.25.085938-30.003906-5.398437-41.496094-15.425781zm0 0" fill="#c8d952"/></svg>